<?xml version="1.0" encoding="UTF-8"?>
<svg id="Layer_2" data-name="Layer 2" xmlns="http://www.w3.org/2000/svg" viewBox="0 0 847.94 350.19">
  <defs>
    <style>
      .cls-1 {
        fill: #14325e;
      }

      .cls-2 {
        fill: #baff38;
      }

      .cls-3 {
        fill: #285f00;
      }
    </style>
  </defs>
  <g id="Layer_1-2" data-name="Layer 1">
    <g>
      <path class="cls-3" d="M516.75,296.42c-7.13-98.92,31.03-263.27,79.69-266.83s7.26,260.9,34.42,255.19c27.16-5.71-11.87-229.08,15.43-237.39s139.27,254.03,178.24,255.2c0,0-69.74,34.41-96.1,37.38-26.36,2.97-59.59-102.67-67.9-101.48-8.31,1.19,7.12,43.92-1.19,61.72-8.31,17.8-24.93,20.18-36.8,13.06-43.78-26.27-30.86-160.24-37.98-159.05-7.12,1.19-20.18,83.09-2.37,189.91,0,0-63.24-17.07-65.45-47.71Z"/>
      <path class="cls-3" d="M550.63,156.76c3.85,15.52,3.16,32.78-4,51.7-22.63,59.84-55.87,47-83.09,24.59-19.19,39.31-28.33,79.54-29.72,83.43,0,0-52.63-71.69-16.44-122.56,4.21-5.92,23.01,20.07,46.16,39.13,16.37-33.53,40.04-66.39,72.45-75.43,5.76-1.61,10.62-1.82,14.63-.85-18.68-75.36-144.42-109.64-157.44-91.94-15.7,21.34-45.88,291.58,51.62,276.32,89.52-14.01,150.87-173.56,105.82-184.37Z"/>
      <path class="cls-3" d="M318.17,117.13c32.93-70.8,23.87-102.08,71.62-90.55,47.75,11.52-67.5,242.21-71.62,254.87,0,0,43.63-66.36,64.21-58.95,0,0-17.29,41.16-1.65,41.16,0,0-79.03,137.47-106.19,65.86-27.17-71.62,43.63-212.39,43.63-212.39Z"/>
      <path class="cls-3" d="M145.85,47.67C49.2,11.76,38.66,100.36,0,154c0,0,11.37,4.49,25.78,9.77,10.25-25.42,31.59-41.54,55.05-40.09,17.21,1.06,31.71,9.93,43.78,21.71,13.25-16.13,23.71-34.06,21.82-45.03,0,0,59.54,35.44,27.72,112.16-4.27,10.29-19.29-37.6-49.54-67.13-15.46,18.82-34.73,35.18-42.61,35.18-8.63,0-35.55-9.23-56.22-16.81-16.11,39.94-4.85,102.86,68.52,156.72,120.08,88.14,148.19-236.91,51.54-272.82Z"/>
      <path class="cls-3" d="M181.64,303.75c-.27-34.46,14.14-241.7,53.99-244.37,39.85-2.67,35.31,79.13,31.2,91.56,0,0,30.21-80.33,76.37-62.94l11.9,21.21s-64.6,10.8-85.83,62.17c-21.24,51.38,10.43,160-19.16,169.55-29.59,9.55-68.29-16.19-68.45-37.18Z"/>
      <path class="cls-3" d="M276.18,169.82c11.52,4.94,78.2,24.7,95.49,21.4l-3.29,18.11s-86.44-13.77-92.2-22.11v-17.4Z"/>
      <ellipse class="cls-3" cx="454" cy="176.81" rx="18.11" ry="49.8" transform="translate(-3.12 345.4) rotate(-41.52)"/>
      <ellipse class="cls-3" cx="110.72" cy="187.51" rx="18.11" ry="49.8" transform="translate(-85.63 93.35) rotate(-33.82)"/>
    </g>
    <g>
      <g>
        <path class="cls-2" d="M599.88,334.71c-.67-.18-16.49-4.5-32.84-12.73-23.03-11.59-35.24-24.87-36.29-39.45-3.55-49.31,3.76-114.77,19.09-170.85,10.06-36.8,31.9-98.89,65.23-101.33.45-.03.89-.05,1.33-.05,4.77,0,9.03,1.87,12.65,5.57,18.83,19.2,17.48,88.79,16.17,156.08-.47,24.11-.91,46.89-.23,64.3.84,21.24,3.21,27.33,4.31,29.03,1.3-1.32,4.88-7.28,5.59-33.06.59-21.59-.9-50.64-2.34-78.73-4.27-83.31-4.49-120.33,11.28-125.13.89-.27,1.83-.41,2.79-.41,15.15,0,36.88,35.96,82.84,118,18.83,33.61,38.3,68.37,55.55,94.71,24.13,36.85,34.58,42.56,38.67,42.68l2.06,9.48c-2.88,1.42-70.83,34.83-97.75,37.86-.54.06-1.1.09-1.66.09h0c-18.33,0-34.65-32.11-54.08-74.08-3.23-6.98-6.94-15-9.92-20.71.33,3.2.82,6.8,1.25,9.88,2.03,14.73,4.33,31.43-.7,42.2-5.84,12.51-16.09,19.68-28.12,19.68-5.47,0-10.92-1.54-15.77-4.45-33.41-20.04-35.9-92.63-37.39-136-.05-1.54-.11-3.09-.16-4.62-4.67,29.35-8.01,90.11,4.7,166.37l-6.24,5.65Z"/>
        <path class="cls-1" d="M616.39,15.31c46.65-.02,7.34,255.32,32.61,255.32.27,0,.56-.03.85-.09,27.16-5.71-11.87-229.08,15.43-237.39.42-.13.87-.19,1.34-.19,29.43,0,138.54,254.24,176.9,255.4,0,0-69.74,34.41-96.1,37.38-.36.04-.73.06-1.1.06-26.03,0-58.24-101.55-66.66-101.55-.05,0-.09,0-.14,0-8.31,1.19,7.12,43.92-1.19,61.72-5.49,11.77-14.61,16.79-23.59,16.79-4.61,0-9.18-1.32-13.2-3.74-43.58-26.15-30.98-159.04-37.89-159.06-.03,0-.06,0-.09,0-7.12,1.19-20.18,83.09-2.37,189.91,0,0-63.24-17.07-65.45-47.71-7.13-98.92,31.03-263.27,79.69-266.83.32-.02.65-.04.96-.04M616.4,5.31v10V5.31c-.57,0-1.14.02-1.7.06-15.04,1.1-29.12,12.6-41.87,34.17-10.31,17.45-19.93,41.94-27.82,70.82-15.47,56.59-22.84,122.7-19.25,172.53,1.19,16.46,14.32,31.11,39.03,43.55,16.8,8.46,33.1,12.9,33.79,13.09l12.47-11.3c-5.69-34.17-7.99-64.36-8.62-88.81,5,29.46,14.62,56.56,33.97,68.17,5.63,3.38,11.97,5.16,18.35,5.16,13.85,0,26.06-8.44,32.65-22.57,3.25-6.97,3.84-15.73,3.34-24.85,6.27,13.47,13.64,28.81,21.25,41.28,12.31,20.17,22.9,29.16,34.34,29.16.74,0,1.49-.04,2.22-.12,27.31-3.07,92.1-34.74,99.4-38.35l-4.12-18.96s.06,0,.06,0c-.04,0-3.78-.6-12.56-10.42-6.43-7.19-13.92-17.39-22.91-31.19-16.96-26.06-36.1-60.21-54.6-93.24-16.96-30.28-32.98-58.88-46.87-80.55-18.69-29.17-29.62-40.01-40.33-40.01-1.45,0-2.88.21-4.25.63-8.97,2.73-13.34,12.08-15.45,26.06-2.9-18.49-7.53-30.36-14.3-37.27-4.53-4.62-10.14-7.06-16.22-7.06h0ZM649.86,232.65c-.27-8.94-.28-19.16-.16-30.15.24,8.19.36,15.97.29,23.08-.02,2.53-.07,4.88-.13,7.07h0Z"/>
      </g>
      <g>
        <path class="cls-2" d="M456.06,332.52c-19.56,0-35.1-11.13-46.2-33.08-20.46-40.48-20.74-108.43-19.09-145.34,2.18-48.66,9.98-96.43,17.38-106.49,3.23-4.39,9.9-6.61,19.82-6.61,18.22,0,50.53,7.9,81.61,25.55,42.62,24.2,58.49,52.04,64.16,72.03,7.43,2.91,16.91,11.23,15.96,34.85-1.08,26.78-15.53,63.77-36.81,94.25-25.44,36.43-56.81,59.21-88.32,64.14-2.89.45-5.76.68-8.5.68h0ZM439.1,184.56c-24.13,36.84-.09,85.63,11.87,105.61,4.11-14.85,12.28-42.33,25.39-70.04-8.33-7.17-16.08-15.07-22.43-21.55-5.22-5.32-11.52-11.75-14.83-14.02ZM488.81,217.42c13.01,10.15,24.08,15.09,33.77,15.09h0c15.4,0,28.31-13.48,38.36-40.07,5.93-15.68,7.45-30.96,4.55-45.48-.34-.02-.69-.03-1.04-.03-2.42,0-5.15.42-8.12,1.25-25.17,7.02-47.88,30.31-67.52,69.23Z"/>
        <path class="cls-1" d="M427.98,46c37.62,0,126.2,34.23,141.64,96.52-1.59-.38-3.31-.58-5.17-.58-2.83,0-5.98.46-9.47,1.43-32.41,9.04-56.08,41.9-72.45,75.43-20.87-17.18-38.19-39.99-44.5-39.99-.69,0-1.25.27-1.66.86-36.19,50.87,16.44,122.56,16.44,122.56,1.38-3.89,10.53-44.13,29.72-83.43,12.61,10.38,26.51,18.71,40.05,18.71,15.68,0,30.89-11.18,43.04-43.3,7.15-18.91,7.84-36.17,4-51.7,45.05,10.82-16.29,170.36-105.82,184.37-2.68.42-5.25.62-7.74.62-88.11,0-59.16-256.18-43.88-276.94,2.26-3.07,7.9-4.58,15.8-4.58M427.98,36h0c-11.76,0-19.56,2.83-23.84,8.65-1.52,2.07-6.17,8.38-11.41,40.09-3.39,20.52-5.86,45.08-6.94,69.15-1.28,28.52-.59,55.94,1.98,79.28,3.15,28.55,9.08,51.61,17.65,68.54,5.57,11.01,12.37,19.62,20.2,25.59,8.91,6.78,19.16,10.22,30.46,10.22,3.01,0,6.14-.25,9.29-.74,32.87-5.15,65.42-28.66,91.65-66.22,21.79-31.21,36.6-69.25,37.71-96.92.4-10-.96-18.45-4.06-25.1-2.89-6.21-7.24-10.82-12.77-13.59-4.48-14.35-12.63-27.97-24.27-40.57-11.06-11.97-25.04-22.79-41.55-32.16-27.6-15.67-61.38-26.2-84.08-26.21h0ZM495.18,215.96c7.84-14.94,16.24-27.5,25.04-37.42,11.81-13.31,24.41-21.9,37.45-25.54,1.28-.36,2.49-.62,3.63-.8,1.66,12.32-.02,25.23-5.03,38.47-5.2,13.76-11.15,23.83-17.67,29.93-4.97,4.65-10.21,6.91-16.01,6.91-7.64,0-16.83-3.88-27.4-11.55h0ZM449.48,277.25c-10.98-21.28-23.92-56.46-9.07-85.05,3.05,2.84,6.84,6.71,9.94,9.88,5.7,5.81,12.5,12.75,19.88,19.34-9.52,20.74-16.32,41.03-20.76,55.83h0Z"/>
      </g>
      <g>
        <path class="cls-2" d="M315.86,340.95c-11.91,0-20.99-8.04-27-23.9-11.68-30.79-7.79-76.67,11.55-136.37,13.94-43.03,31.33-78.12,32.25-79.97,9.1-19.57,15-36.21,19.74-49.58,10.2-28.77,16.35-46.13,39.88-46.13,5,0,10.78.81,17.68,2.48,5.36,1.29,9.55,4.77,12.12,10.06,14.7,30.28-23.58,125.78-62.49,212.07,15.92-18.11,28.49-26.92,38.35-26.92,1.8,0,3.53.29,5.14.87l2.92,6.64c-5.54,13.21-9.7,30.02-7.06,33.99.09.13.16.24.8.24l4.33,7.49c-.51.9-12.8,22.18-29.51,43.83-23.16,29.99-42.9,45.2-58.68,45.2h0Z"/>
        <path class="cls-1" d="M392.27,10c4.63,0,10.05.78,16.51,2.34,47.75,11.52-67.5,242.21-71.62,254.87,0,0,39.14-59.53,60.76-59.53,1.21,0,2.36.19,3.45.58,0,0-17.29,41.16-1.65,41.16,0,0-49.74,86.53-83.86,86.53-8.89,0-16.72-5.87-22.33-20.67-27.17-71.62,43.63-212.39,43.63-212.39,28.47-61.22,25.55-92.89,55.11-92.89M392.27,0c-12.73,0-22.38,4.92-29.49,15.03-5.83,8.28-9.92,19.82-15.1,34.43-4.7,13.26-10.55,29.75-19.53,49.08-1.43,2.85-18.45,37.21-32.51,80.6-19.7,60.8-23.56,107.8-11.46,139.68,8.5,22.42,21.92,27.12,31.68,27.12,17.66,0,38.15-15.42,62.64-47.15,16.92-21.92,29.37-43.48,29.89-44.39l-8.67-14.98c1.49,0,3.27,1.4,3.63,2.5-.01-.04-1.15-3.77,2.49-16.25,2.12-7.27,4.72-13.48,4.74-13.55l-5.83-13.28c-2.15-.78-4.45-1.17-6.83-1.17-7.6,0-15.53,4.13-23.05,10,10.27-23.35,21.73-50.55,31.52-77.03,29.51-79.83,25.65-104.04,20.18-115.31-3.24-6.67-8.58-11.08-15.44-12.73C403.84.86,397.67,0,392.27,0h0Z"/>
      </g>
      <g>
        <path class="cls-2" d="M152.09,326.34c-13.18,0-27.23-5.41-41.75-16.07-34.22-25.12-58.27-54.82-69.56-85.9-8.98-24.73-9.8-50.04-2.43-71.89-12.04-4.47-21.09-8.04-21.19-8.08l-2.22-7.57c8.87-12.3,16.4-26.84,23.68-40.89C57.94,58.65,77.92,20.09,124.43,20.09c12.54,0,26.72,2.91,42.15,8.64,25.04,9.3,44.3,37.61,54.23,79.69,8.77,37.18,9.67,81.5,2.46,121.58-4.93,27.41-13.37,50.65-24.42,67.21-12.7,19.05-28.87,29.12-46.76,29.12h0ZM150.29,130.81c15.21,16,26.45,36.11,34.05,49.71,2.1,3.76,4.37,7.82,6.19,10.75,10.39-28.06,9.26-53.24-3.39-74.91-5.58-9.56-12.37-16.45-17.35-20.72-2.82,12.1-12.11,25.75-19.5,35.18ZM51.51,146.66c36.51,13.2,46.75,14.68,49.49,14.68,4.35,0,19.97-11.48,35.73-29.77-11.9-10.59-24.4-16.35-37.21-17.14-.87-.05-1.75-.08-2.62-.08-18.65,0-35.68,12.25-45.39,32.31Z"/>
        <path class="cls-1" d="M124.43,25.09c11.56,0,24.87,2.56,40.41,8.33,85.19,31.65,73.45,287.92-12.75,287.92-11.6,0-24.55-4.64-38.79-15.1C39.92,252.38,28.66,189.47,44.77,149.53c20.67,7.58,47.6,16.81,56.22,16.81,7.89,0,27.15-16.36,42.61-35.18,27.4,26.74,42.31,68.55,48.04,68.55.6,0,1.09-.45,1.5-1.42,31.82-76.72-27.72-112.16-27.72-112.16,1.89,10.98-8.57,28.91-21.82,45.03-12.07-11.79-26.57-20.65-43.78-21.71-.98-.06-1.95-.09-2.92-.09-22.3,0-42.3,15.82-52.13,40.18-14.41-5.29-25.78-9.77-25.78-9.77C51.44,94.74,64.07,25.09,124.43,25.09M124.43,15.09c-22.48,0-41.17,8.48-57.16,25.93-13.41,14.63-23.41,33.94-33.09,52.61-7.2,13.9-14.65,28.27-23.3,40.27l4.44,15.15c.09.04,7.04,2.78,16.86,6.46-6.15,21.82-4.84,46.49,3.9,70.56,5.59,15.4,14.15,30.46,25.44,44.77,12.19,15.45,27.62,30.07,45.86,43.46,15.4,11.3,30.44,17.04,44.71,17.04,19.64,0,37.25-10.85,50.93-31.37,11.42-17.14,20.13-41.04,25.18-69.12,7.32-40.73,6.4-85.78-2.52-123.59-4.81-20.4-11.73-37.72-20.55-51.46-10.11-15.75-22.49-26.43-36.8-31.75-16.21-6.02-30.57-8.95-43.89-8.95v10s0-10,0-10h0ZM156.82,130.52c5.98-7.96,11.75-16.98,15.29-25.81,3.61,3.78,7.52,8.62,10.93,14.54,10.08,17.51,12.14,37.55,6.18,59.74-.17-.31-.34-.61-.51-.91-7.24-12.96-17.72-31.72-31.88-47.56h0ZM58.65,143.91c9.09-15.37,23.11-24.56,38.25-24.56.77,0,1.54.02,2.31.07,10.49.65,20.5,4.81,30.39,12.67-13.33,14.72-25.14,23.26-28.91,24.24-2.02-.11-10.82-1.34-42.04-12.42h0Z"/>
      </g>
      <g>
        <path class="cls-2" d="M255.53,333.74c-13.55,0-28.25-5.05-40.33-13.87-12.36-9.01-19.49-20.07-19.57-30.33-.15-18.99,3.74-80.31,12.01-134.9,4.88-32.2,10.58-57.99,16.96-76.67,8.43-24.69,18.14-37.06,29.68-37.84.74-.05,1.49-.08,2.22-.08,9.72,0,17.76,4.3,23.89,12.79,10.29,14.25,13.08,37.89,13,56.92,11.49-19.61,30.63-43.49,55.74-43.49,4.93,0,9.91.94,14.82,2.79l2.6,2.23,11.89,21.21-3.54,7.38c-.62.1-62.14,11.01-82.03,59.15-9.56,23.12-7.86,59.72-6.36,92.01,1.92,41.43,3.44,74.15-15.88,80.39-4.71,1.52-9.79,2.29-15.09,2.29Z"/>
        <path class="cls-1" d="M256.5,45.07c37.82,0,33.36,79.39,29.31,91.63,0,0,24.6-65.4,63.31-65.4,4.19,0,8.54.77,13.06,2.46l11.9,21.21s-64.6,10.8-85.83,62.17c-21.24,51.38,10.43,160-19.16,169.55-4.37,1.41-8.94,2.05-13.55,2.05-26.63,0-54.76-21.34-54.9-39.23-.27-34.46,14.14-241.7,53.99-244.37.64-.04,1.27-.06,1.88-.06M256.5,35.07c-.84,0-1.7.03-2.55.09-18.35,1.23-28.23,24.11-34.08,41.21-6.48,18.96-12.26,45.05-17.18,77.54-8.31,54.85-12.21,116.55-12.06,135.68.09,11.86,7.97,24.37,21.62,34.33,12.92,9.42,28.69,14.83,43.28,14.83,5.82,0,11.41-.85,16.62-2.53,16.74-5.4,18.91-26.98,19.62-34.07,1.44-14.27.6-32.26-.28-51.31-1.47-31.77-3.14-67.78,5.99-89.87,7.78-18.83,23.09-33.95,45.51-44.94,17.35-8.51,32.59-11.17,32.74-11.2l7.06-14.75-11.9-21.21-5.2-4.47c-5.47-2.06-11.05-3.11-16.57-3.11-11.15,0-22.06,4.17-32.44,12.38-6.53,5.16-12.87,11.97-18.91,20.26-1.23-14.45-4.64-31.95-13.35-44-7.02-9.72-16.69-14.86-27.94-14.86h0Z"/>
      </g>
      <g>
        <path class="cls-2" d="M500.26,206.75c-11.55,0-29.05-11.33-44.58-28.86-18.05-20.39-30.39-46.29-19.03-56.35,2.33-2.06,5.46-3.15,9.06-3.15,11.55,0,29.05,11.33,44.58,28.86,9.2,10.38,16.4,21.52,20.28,31.36,5.77,14.63,2.5,21.66-1.25,24.99-2.33,2.06-5.46,3.15-9.06,3.15Z"/>
        <path class="cls-1" d="M445.71,123.39c9.73,0,26.13,10.57,40.83,27.18,18.23,20.59,26.95,42.66,19.46,49.29-1.45,1.28-3.4,1.9-5.74,1.9-9.73,0-26.13-10.57-40.83-27.18-18.23-20.59-26.95-42.66-19.46-49.29,1.45-1.28,3.4-1.9,5.74-1.9M445.72,113.39v10-10h0c-4.84,0-9.11,1.53-12.37,4.41-2.83,2.5-6.17,7.18-6.05,15.24.07,4.52,1.23,9.68,3.46,15.33,4.09,10.37,11.62,22.03,21.19,32.84,13.08,14.77,32.64,30.55,48.32,30.55,4.84,0,9.11-1.52,12.37-4.41,2.83-2.5,6.17-7.18,6.05-15.24-.07-4.52-1.23-9.68-3.46-15.33-4.09-10.37-11.62-22.03-21.19-32.84-13.08-14.77-32.64-30.55-48.32-30.55h0Z"/>
      </g>
      <g>
        <path class="cls-2" d="M153.07,220.87c-13.33,0-30.98-17.44-42.56-34.73-7.72-11.52-13.37-23.53-15.9-33.8-3.76-15.27.42-21.8,4.59-24.6,2.05-1.37,4.45-2.07,7.14-2.07,13.33,0,30.98,17.44,42.56,34.73,15.16,22.62,23.91,49.95,11.3,58.39-2.05,1.37-4.45,2.07-7.14,2.07Z"/>
        <path class="cls-1" d="M106.35,130.67c9.54,0,25.36,13.05,38.41,32.52,15.31,22.85,20.98,45.89,12.67,51.46-1.23.82-2.7,1.22-4.36,1.22-9.54,0-25.36-13.05-38.41-32.52-15.31-22.85-20.98-45.89-12.67-51.46,1.23-.82,2.7-1.22,4.36-1.22M106.35,120.67v10-10h0c-3.65,0-7.08,1.01-9.92,2.91-3.14,2.1-7.08,6.29-8.04,14.29-.54,4.49-.08,9.76,1.38,15.66,2.67,10.82,8.56,23.39,16.6,35.38,6.85,10.23,14.6,19.1,22.39,25.65,8.93,7.5,17.11,11.3,24.32,11.3,3.65,0,7.08-1.01,9.93-2.91,3.14-2.1,7.08-6.29,8.04-14.29.54-4.49.08-9.76-1.38-15.66-2.67-10.82-8.56-23.39-16.6-35.38-6.85-10.23-14.59-19.1-22.39-25.65-8.93-7.5-17.11-11.3-24.32-11.3h0Z"/>
      </g>
      <path class="cls-2" d="M299,169.19l-9,24c5.76,8.34,83,15,83,15l10-21c-17.29,3.29-72.48-13.06-84-18Z"/>
    </g>
  </g>
</svg>