<?xml version="1.0" encoding="UTF-8"?>
<svg id="Layer_1" data-name="Layer 1" xmlns="http://www.w3.org/2000/svg" viewBox="0 0 844.85 343.19">
  <defs>
    <style>
      .cls-1 {
        fill: #14325e;
      }

      .cls-2 {
        fill: #baff38;
      }

      .cls-3 {
        fill: #285f00;
      }
    </style>
  </defs>
  <g>
    <path class="cls-3" d="M516.75,289.42c-7.13-98.92,31.03-263.27,79.69-266.83s7.26,260.9,34.42,255.19c27.16-5.71-11.87-229.08,15.43-237.39s139.27,254.03,178.24,255.2c0,0-69.74,34.41-96.1,37.38-26.36,2.97-59.59-102.67-67.9-101.48-8.31,1.19,7.12,43.92-1.19,61.72-8.31,17.8-24.93,20.18-36.8,13.06-43.78-26.27-30.86-160.24-37.98-159.05-7.12,1.19-20.18,83.09-2.37,189.91,0,0-63.24-17.07-65.45-47.71Z"/>
    <path class="cls-3" d="M550.63,149.76c3.85,15.52,3.16,32.78-4,51.7-22.63,59.84-55.87,47-83.09,24.59-19.19,39.31-28.33,79.54-29.72,83.43,0,0-52.63-71.69-16.44-122.56,4.21-5.92,23.01,20.07,46.16,39.13,16.37-33.53,40.04-66.39,72.45-75.43,5.76-1.61,10.62-1.82,14.63-.85-18.68-75.36-144.42-109.64-157.44-91.94-15.7,21.34-45.88,291.58,51.62,276.32,89.52-14.01,150.87-173.56,105.82-184.37Z"/>
    <path class="cls-3" d="M318.17,110.13c32.93-70.8,23.87-102.08,71.62-90.55,47.75,11.52-67.5,242.21-71.62,254.87,0,0,43.63-66.36,64.21-58.95,0,0-17.29,41.16-1.65,41.16,0,0-79.03,137.47-106.19,65.86-27.17-71.62,43.63-212.39,43.63-212.39Z"/>
    <path class="cls-3" d="M145.85,40.67C49.2,4.76,38.66,93.36,0,147c0,0,11.37,4.49,25.78,9.77,10.25-25.42,31.59-41.54,55.05-40.09,17.21,1.06,31.71,9.93,43.78,21.71,13.25-16.13,23.71-34.06,21.82-45.03,0,0,59.54,35.44,27.72,112.16-4.27,10.29-19.29-37.6-49.54-67.13-15.46,18.82-34.73,35.18-42.61,35.18-8.63,0-35.55-9.23-56.22-16.81-16.11,39.94-4.85,102.86,68.52,156.72,120.08,88.14,148.19-236.91,51.54-272.82Z"/>
    <path class="cls-3" d="M181.64,296.75c-.27-34.46,14.14-241.7,53.99-244.37,39.85-2.67,35.31,79.13,31.2,91.56,0,0,30.21-80.33,76.37-62.94l11.9,21.21s-64.6,10.8-85.83,62.17c-21.24,51.38,10.43,160-19.16,169.55-29.59,9.55-68.29-16.19-68.45-37.18Z"/>
    <path class="cls-3" d="M276.18,162.82c11.52,4.94,78.2,24.7,95.49,21.4l-3.29,18.11s-86.44-13.77-92.2-22.11v-17.4Z"/>
    <ellipse class="cls-3" cx="454" cy="169.81" rx="18.11" ry="49.8" transform="translate(1.52 343.64) rotate(-41.52)"/>
    <ellipse class="cls-3" cx="110.72" cy="180.51" rx="18.11" ry="49.8" transform="translate(-81.74 92.17) rotate(-33.82)"/>
  </g>
  <g>
    <g>
      <path class="cls-2" d="M600.79,324.33c-2.62-.71-64.29-17.71-66.55-49.05-3.47-48.2,3.97-114.8,18.97-169.68,7.9-28.91,29.77-96.39,62.11-98.76.36-.03.72-.04,1.07-.04,3.8,0,7.22,1.52,10.16,4.52,17.8,18.15,16.4,90.09,15.17,153.57-.89,45.76-1.73,88.99,5.51,96.38.76.77,1.38.86,1.78.86.17,0,.35-.02.54-.06,5.23-1.1,8.2-13.46,8.84-36.74.59-21.73-.9-50.85-2.34-79.01-3.73-72.86-5-117.4,8.81-121.6.56-.17,1.16-.26,1.77-.26,13.7,0,39.28,43.91,79.79,116.21,36.39,64.96,77.64,138.6,97.16,139.18l.62,2.84c-2.86,1.41-70.27,34.56-96.59,37.52-.42.05-.84.07-1.27.07h0c-17.55,0-36.04-39.95-50.91-72.06-6.2-13.38-13.21-28.54-15.77-29.49-2.31.61-.72,12.15.45,20.61,1.86,13.55,4.19,30.41-.4,40.25-5.24,11.22-14.33,17.66-24.95,17.66-4.83,0-9.67-1.37-13.97-3.95-31.77-19.07-34.33-93.26-35.7-133.12-.39-11.4-.76-22.22-1.73-25.28-2.38,3.17-7.11,21.19-8.91,55.19-2.16,40.67.77,87.75,8.24,132.55l-1.87,1.69Z"/>
      <path class="cls-1" d="M616.39,8.31c46.65-.02,7.34,255.32,32.61,255.32.27,0,.56-.03.85-.09,27.16-5.71-11.87-229.08,15.43-237.39.42-.13.87-.19,1.34-.19,29.43,0,138.54,254.24,176.9,255.4,0,0-69.74,34.41-96.1,37.38-.36.04-.73.06-1.1.06-26.03,0-58.24-101.55-66.66-101.55-.05,0-.09,0-.14,0-8.31,1.19,7.12,43.92-1.19,61.72-5.49,11.77-14.61,16.79-23.59,16.79-4.61,0-9.18-1.32-13.2-3.74-43.58-26.15-30.98-159.04-37.89-159.06-.03,0-.06,0-.09,0-7.12,1.19-20.18,83.09-2.37,189.91,0,0-63.24-17.07-65.45-47.71-7.13-98.92,31.03-263.27,79.69-266.83.32-.02.65-.04.96-.04M616.4,5.31v3-3c-.4,0-.8.01-1.19.04-12.61.92-24.84,11.27-36.35,30.75-9.99,16.92-19.36,40.82-27.09,69.11-7.35,26.88-13.02,56.86-16.41,86.7-3.45,30.41-4.36,59.28-2.61,83.48,2.33,32.38,64.99,49.67,67.66,50.39l3.74-3.39c-9.36-56.17-9.7-101.73-8.33-130.06,1.29-26.62,4.38-43.88,6.82-51.83.42,4.96.68,12.43.93,19.75.71,20.55,1.68,48.69,6.4,74.5,5.79,31.62,15.61,51.19,30.03,59.84,4.54,2.72,9.64,4.17,14.75,4.17,11.23,0,20.82-6.75,26.31-18.53,4.78-10.23,2.52-26.62.53-41.08-.86-6.25-1.99-14.46-1.51-17.9,3.1,4.1,9.07,16.99,13.98,27.61,18.47,39.9,35.16,72.93,52.27,72.93.48,0,.96-.03,1.43-.08,26.58-2.99,94.22-36.25,97.09-37.67l-1.24-5.69c-9.9-.3-27.37-23.87-40.28-43.58-17.29-26.4-36.77-61.19-55.62-94.83-16.91-30.19-32.88-58.7-46.66-80.2-16.52-25.79-26.82-36.79-34.44-36.79-.76,0-1.51.11-2.21.32-7.84,2.39-11.5,15.17-12.24,42.75-.6,22.4.91,51.87,2.37,80.37,1.44,28.13,2.93,57.22,2.34,78.89-.84,30.6-5.63,34.89-7.65,35.32-.09.02-.16.03-.23.03-.09,0-.31,0-.71-.41-1.98-2.02-4.51-9.18-5.35-31.81-.64-17.35-.2-39.76.26-63.49.62-31.99,1.27-65.07-.41-93.28-1.98-33.31-6.8-52.81-15.19-61.36-3.23-3.29-7.01-4.96-11.22-4.96h0Z"/>
    </g>
    <g>
      <path class="cls-2" d="M456.06,322.02c-18.13,0-32.62-10.49-43.08-31.16-20.1-39.76-20.36-107.04-18.72-143.6,2.34-52.15,10.52-96.18,16.7-104.57,2.53-3.44,8.25-5.19,17-5.19,17.76,0,49.35,7.76,79.88,25.1,42.87,24.35,57.95,52.26,63,71.7,10.62,3.07,16.06,14.39,15.35,32-1.05,26.15-15.25,62.42-36.18,92.39-24.89,35.64-55.43,57.9-85.99,62.69-2.72.42-5.4.64-7.96.64h0ZM438.05,173.32c-.22,0-.32.05-.44.23-18.31,25.73-12.92,57.12-5.18,78.92,6.59,18.57,15.96,33.54,19.83,39.32.14-.51.29-1.06.45-1.66,3.36-12.45,12.21-45.31,27.97-77.91-8.99-7.51-17.43-16.12-24.25-23.08-7.97-8.13-15.5-15.81-18.38-15.81ZM484.41,211.4c14.61,11.85,27.11,17.62,38.17,17.62h0c17,0,31.01-14.24,41.63-42.33,6.51-17.2,7.91-33.98,4.16-49.9-1.24-.23-2.55-.35-3.93-.35-2.74,0-5.79.46-9.06,1.38-26.71,7.45-50.59,32.2-70.98,73.58Z"/>
      <path class="cls-1" d="M427.98,39c37.62,0,126.2,34.23,141.64,96.52-1.59-.38-3.31-.58-5.17-.58-2.83,0-5.98.46-9.47,1.43-32.41,9.04-56.08,41.9-72.45,75.43-20.87-17.18-38.19-39.99-44.5-39.99-.69,0-1.25.27-1.66.86-36.19,50.87,16.44,122.56,16.44,122.56,1.38-3.89,10.53-44.13,29.72-83.43,12.61,10.38,26.51,18.71,40.05,18.71,15.68,0,30.89-11.18,43.04-43.3,7.15-18.91,7.84-36.17,4-51.7,45.05,10.82-16.29,170.36-105.82,184.37-2.68.42-5.25.62-7.74.62-88.11,0-59.16-256.18-43.88-276.94,2.26-3.07,7.9-4.58,15.8-4.58M427.98,36h0c-9.25,0-15.38,1.95-18.21,5.8-7.08,9.62-14.86,57.89-16.99,105.4-1.65,36.71-1.38,104.28,18.88,144.35,10.73,21.21,25.67,31.97,44.41,31.97,2.65,0,5.41-.22,8.2-.66,30.97-4.85,61.87-27.33,86.99-63.31,21.08-30.19,35.39-66.77,36.45-93.19.72-17.94-4.81-29.65-15.61-33.25-3.91-14.47-11.86-28.25-23.63-40.99-10.57-11.44-23.99-21.81-39.87-30.83-13.71-7.78-28.9-14.3-43.92-18.84-13.76-4.16-26.79-6.45-36.7-6.45h0ZM486.29,210.98c20.08-40.32,43.46-64.45,69.51-71.72,3.14-.88,6.06-1.32,8.66-1.32.93,0,1.83.06,2.69.17,3.39,15.33,1.94,31.48-4.33,48.04-5.59,14.77-12.13,25.72-19.44,32.56-6.33,5.92-13.13,8.8-20.8,8.8-10.47,0-22.37-5.41-36.3-16.53h0ZM451.68,288.16c-4.46-6.99-12.21-20.29-17.87-36.26-4.87-13.74-7.27-26.75-7.13-38.65.17-14.47,4.14-27.36,11.79-38.33,2.86.97,10.6,8.86,16.88,15.27,6.62,6.75,14.76,15.05,23.47,22.43-14.89,31.09-23.53,62.18-27.14,75.55h0Z"/>
    </g>
    <g>
      <path class="cls-2" d="M315.86,330.45c-10.3,0-18.29-7.28-23.73-21.64-11.39-30.03-7.49-75.13,11.6-134.04,14.17-43.75,31.91-79.19,32.09-79.55,9.16-19.71,15.1-36.45,19.87-49.91,10.02-28.25,15.53-43.81,36.58-43.81,4.72,0,10.23.78,16.86,2.38,4.37,1.06,7.66,3.81,9.79,8.18,17.19,35.4-47.48,176.42-71.82,229.51-.85,1.86-1.66,3.62-2.42,5.28,12.94-17.67,37.26-47.67,53.24-47.67,1.4,0,2.73.22,3.96.67l.87,1.99c-3.39,8.08-11.22,30.54-6.75,37.28.82,1.23,2,1.8,3.72,1.8l1.3,2.25c-2.05,3.56-50.57,87.28-85.16,87.28Z"/>
      <path class="cls-1" d="M392.27,3c4.63,0,10.04.78,16.51,2.34,47.75,11.52-67.5,242.21-71.62,254.87,0,0,39.14-59.53,60.76-59.53,1.21,0,2.36.19,3.45.58,0,0-17.29,41.16-1.65,41.16,0,0-49.74,86.53-83.86,86.53-8.89,0-16.72-5.87-22.33-20.67-27.17-71.62,43.63-212.39,43.63-212.39,28.47-61.21,25.56-92.88,55.11-92.89M392.28,0v3V0c-10.58,0-17.91,3.72-23.77,12.06-5.27,7.5-9.03,18.09-14.23,32.75-4.76,13.42-10.68,30.11-19.82,49.78-.72,1.44-18.17,36.55-32.15,79.72-8.36,25.81-13.88,49.44-16.4,70.21-3.17,26.22-1.55,48.03,4.82,64.82,5.69,15,14.15,22.61,25.14,22.61,15.13,0,34.34-14.95,57.1-44.43,16.63-21.54,29.24-43.38,29.36-43.6l-2.6-4.5c-1.51,0-2.1-.57-2.47-1.13-3.46-5.2,1.94-24.1,6.88-35.87l-1.75-3.98c-1.39-.5-2.89-.75-4.46-.75-9.9,0-23.62,10.37-40.79,30.84-1.9,2.26-3.74,4.53-5.5,6.75,12.45-27.21,32.5-71.61,48.18-114.04,21.46-58.05,28.15-93.97,20.45-109.82-2.33-4.8-5.96-7.82-10.79-8.99-6.74-1.63-12.37-2.42-17.21-2.42h0Z"/>
    </g>
    <g>
      <path class="cls-2" d="M152.09,315.84c-12.42,0-25.77-5.18-39.68-15.39-33.66-24.71-57.29-53.85-68.34-84.28-9.15-25.2-9.58-50.97-1.25-72.77-13.58-5-24.26-9.21-24.37-9.26l-.67-2.27c9.02-12.51,16.61-27.16,23.95-41.33C60.57,54.19,80.05,16.6,124.43,16.6c12.12,0,25.89,2.83,40.93,8.42,23.91,8.88,42.39,36.31,52.04,77.21,8.67,36.73,9.55,80.53,2.42,120.15-10.53,58.52-35.85,93.46-67.73,93.46h0ZM145.63,124.04c15.98,15.98,27.79,37.11,35.65,51.18,3.97,7.1,8.45,15.12,10.25,15.93.06-.08.14-.22.23-.45,16.17-38.99,7.97-66.87-1.76-83.39-7.96-13.51-18.2-21.87-22.85-25.22-.17,13.8-14.25,32.97-21.52,41.95ZM46.76,141.66c28.58,10.44,47.81,16.18,54.24,16.18,6.91,0,25.31-15.26,40.57-33.57-13.24-12.6-27.31-19.43-41.83-20.33-.94-.06-1.89-.09-2.83-.09-21.11,0-40.2,14.44-50.14,37.81Z"/>
      <path class="cls-1" d="M124.43,18.09c11.56,0,24.87,2.56,40.41,8.33,85.19,31.65,73.45,287.92-12.75,287.92-11.6,0-24.55-4.64-38.79-15.1C39.92,245.38,28.66,182.47,44.77,142.53c20.67,7.58,47.6,16.81,56.22,16.81,7.89,0,27.15-16.36,42.61-35.18,27.4,26.74,42.31,68.55,48.04,68.55.6,0,1.09-.45,1.5-1.42,31.82-76.72-27.72-112.16-27.72-112.16,1.89,10.98-8.57,28.91-21.82,45.03-12.07-11.79-26.57-20.65-43.78-21.71-.98-.06-1.95-.09-2.92-.09-22.3,0-42.3,15.82-52.13,40.18-14.41-5.29-25.78-9.77-25.78-9.77C51.44,87.74,64.07,18.09,124.43,18.09M124.43,15.09c-20.41,0-37.41,7.74-52,23.66-12.78,13.95-22.57,32.84-32.03,51.1-7.32,14.12-14.89,28.72-23.84,41.14l1.33,4.54c.11.04,10.07,3.97,22.99,8.75-7.91,21.83-7.31,47.4,1.77,72.4,5.34,14.7,13.53,29.1,24.36,42.82,11.8,14.95,26.77,29.13,44.51,42.15,14.17,10.4,27.82,15.68,40.57,15.68,17.19,0,32.79-9.77,45.11-28.25,10.89-16.34,19.23-39.33,24.11-66.48,7.16-39.82,6.27-83.83-2.45-120.75-4.63-19.63-11.24-36.21-19.63-49.29-9.27-14.45-20.49-24.19-33.34-28.97-15.2-5.65-29.15-8.51-41.45-8.52h0ZM147.64,123.94c15.13-18.88,19.8-31.36,20.78-39.02,5.11,4,13.59,11.73,20.35,23.27,6.04,10.3,9.57,21.61,10.49,33.61,1.11,14.61-1.66,30.33-8.24,46.75-2.05-2.65-5.4-8.64-8.43-14.05-7.75-13.87-19.31-34.55-34.95-50.55h0ZM48.77,140.79c9.86-21.94,28.08-35.44,48.13-35.44.91,0,1.83.03,2.74.08,13.79.85,27.19,7.23,39.86,18.96-16,18.93-32.91,31.94-38.51,31.94-6.15,0-24.64-5.51-52.22-15.54h0Z"/>
    </g>
    <g>
      <path class="cls-2" d="M255.53,323.24c-26.73,0-56.25-21.31-56.4-40.72-.15-18.89,3.73-79.94,11.97-134.34,11.03-72.82,25.64-110.35,43.42-111.54.67-.04,1.34-.07,1.98-.07,8.53,0,15.62,3.81,21.05,11.34,12.47,17.26,13.44,51.06,11.69,70.13,9.03-18.95,30.21-55.25,59.88-55.25,4.5,0,9.07.86,13.58,2.56l.78.67,11.89,21.21-1.06,2.21c-.64.11-64.03,11.27-84.69,61.27-9.85,23.84-8.14,60.85-6.63,93.51,1.78,38.36,3.31,71.48-13.46,76.89-4.37,1.41-9.08,2.12-14.01,2.12Z"/>
      <path class="cls-1" d="M256.5,38.07c37.82,0,33.36,79.39,29.31,91.63,0,0,24.6-65.4,63.31-65.4,4.19,0,8.54.77,13.06,2.46l11.9,21.21s-64.6,10.8-85.83,62.17c-21.24,51.38,10.43,160-19.16,169.55-4.37,1.41-8.94,2.05-13.55,2.05-26.63,0-54.76-21.34-54.9-39.23-.27-34.46,14.14-241.7,53.99-244.37.64-.04,1.27-.06,1.88-.06M256.5,35.07c-.68,0-1.38.02-2.08.07-10.64.71-19.78,12.65-27.92,36.49-6.34,18.57-12.02,44.24-16.88,76.32-8.25,54.48-12.13,115.65-11.99,134.58.07,9.48,7.08,20.22,18.75,28.73,11.75,8.57,26.02,13.48,39.15,13.48,5.09,0,9.96-.74,14.47-2.2,17.86-5.76,16.3-39.42,14.5-78.39-1.51-32.5-3.21-69.34,6.51-92.87,10.59-25.61,32.63-40.63,49.26-48.73,18.22-8.86,34.13-11.61,34.29-11.63l2.12-4.43-11.9-21.21-1.56-1.34c-4.68-1.76-9.43-2.66-14.11-2.66-9.53,0-18.98,3.66-28.09,10.87-7.1,5.62-14.02,13.41-20.58,23.16-3.61,5.37-6.69,10.71-9.22,15.49.24-5.26.26-11.07-.01-16.96-.68-14.43-3.39-34.26-12.46-46.82-5.73-7.94-13.23-11.96-22.27-11.96h0Z"/>
    </g>
    <g>
      <path class="cls-2" d="M387.14,189.57c-.22-.03-21.9-3.5-44-7.94-40.56-8.15-47.51-12.35-49.2-14.8l-.27-.85v-17.4l2.09-1.38c10.22,4.38,67.84,21.65,90.13,21.65,1.79,0,3.3-.12,4.49-.34l1.76,1.74-3.29,18.11-1.71,1.21Z"/>
      <path class="cls-1" d="M295.18,148.57c10.65,4.56,68.36,21.77,90.73,21.77,1.85,0,3.45-.12,4.77-.37l-3.29,18.11s-86.44-13.77-92.2-22.11v-17.4M296.36,145.82l-4.18,2.76v17.4l.53,1.7c1.28,1.86,4.29,6.21,50.14,15.42,22.13,4.45,43.84,7.91,44.06,7.95l3.42-2.43,3.29-18.11-3.51-3.48c-1.1.21-2.51.32-4.2.32-22.12,0-79.38-17.17-89.54-21.53h0Z"/>
    </g>
    <g>
      <path class="cls-2" d="M500.26,196.25c-10.43,0-27.3-11.12-41.96-27.68-19.07-21.54-27.56-44.12-19.33-51.41,1.7-1.51,3.97-2.27,6.74-2.27,10.43,0,27.3,11.12,41.96,27.68,19.07,21.54,27.56,44.12,19.33,51.41-1.7,1.51-3.97,2.27-6.74,2.27Z"/>
      <path class="cls-1" d="M445.71,116.39c9.73,0,26.13,10.57,40.83,27.18,18.23,20.59,26.95,42.66,19.46,49.29-1.45,1.28-3.4,1.9-5.74,1.9-9.73,0-26.13-10.57-40.83-27.18-18.23-20.59-26.95-42.66-19.46-49.29,1.45-1.28,3.4-1.9,5.74-1.9M445.72,113.39v3-3h0c-3.14,0-5.75.89-7.73,2.65-10.27,9.09,2.23,34.36,19.2,53.53,15.16,17.12,32.07,28.19,43.08,28.19,3.14,0,5.75-.89,7.73-2.65,4.64-4.11,4.89-12.19.72-22.76-3.8-9.63-10.87-20.56-19.92-30.77-15.16-17.12-32.07-28.19-43.08-28.19h0Z"/>
    </g>
    <g>
      <path class="cls-2" d="M153.07,210.37c-10.26,0-26.56-13.64-39.65-33.18-7.5-11.19-12.97-22.8-15.4-32.69-2.56-10.38-1.44-17.78,3.14-20.85,1.46-.98,3.21-1.47,5.2-1.47,10.26,0,26.56,13.64,39.65,33.18,7.5,11.19,12.97,22.8,15.4,32.69,2.56,10.38,1.44,17.78-3.14,20.85-1.46.98-3.21,1.47-5.2,1.47Z"/>
      <path class="cls-1" d="M106.35,123.67c9.54,0,25.36,13.05,38.41,32.52,15.31,22.85,20.98,45.89,12.67,51.46-1.23.82-2.7,1.22-4.36,1.22-9.54,0-25.36-13.05-38.41-32.52-15.31-22.85-20.98-45.89-12.67-51.46,1.23-.82,2.7-1.22,4.36-1.22M106.35,120.67v3-3h0c-2.29,0-4.32.58-6.03,1.73-5.14,3.45-6.48,11.42-3.76,22.46,2.48,10.05,8.02,21.83,15.61,33.16,13.56,20.24,30,33.85,40.9,33.85,2.29,0,4.32-.58,6.03-1.73,11.39-7.63,2.4-34.35-11.85-55.62-13.56-20.24-30-33.85-40.9-33.85h0Z"/>
    </g>
  </g>
</svg>